<svg viewBox="0 0 243.84 58.589" xmlns="http://www.w3.org/2000/svg">
  <g fill="none" fill-rule="evenodd" clip-rule="evenodd">
    <path
      d="M243.84 14.667l-10.16 4.91c-10.16 4.742-30.48 14.563-50.8 12.193-20.32-2.54-40.64-17.103-60.96-18.288-20.32-1.355-40.64 10.837-60.96 15.748-20.32 4.91-40.64 2.54-50.8 1.185L0 29.23v29.294h243.84z"
      fill="#ff4d84" />
    <path
      d="M0 0l10.16 2.54c10.16 2.37 30.48 7.281 50.8 6.096C81.28 7.451 101.6 0 121.92 7.451c20.32 7.281 40.64 29.125 60.96 35.221 20.32 6.096 40.64-3.556 50.8-8.467l10.16-4.91v29.294H0z"
      fill="#b80a47" />
  </g>
</svg>